# Blender 3.5.0
# www.blender.org
mtllib ramp4.mtl
o Ramp4
v -2.496680 0.523402 1.000000
v -2.496680 0.523402 -1.000000
v -1.000000 0.523402 1.000000
v -1.000000 -0.523402 1.000000
v -1.000000 0.523402 -1.000000
v -1.000000 -0.523402 -1.000000
v 0.000000 0.523402 -1.000000
v 0.000000 -0.523402 -1.000000
v 0.000000 0.523402 1.000000
v 0.000000 -0.523402 1.000000
v -1.928459 0.311552 1.000000
v -1.206025 -0.238521 1.000000
v -1.737212 0.218881 1.000000
v -1.532761 0.081801 1.000000
v -1.346233 -0.078817 1.000000
v -1.206025 -0.238521 -1.000000
v -1.928459 0.311552 -1.000000
v -1.346233 -0.078817 -1.000000
v -1.532761 0.081801 -1.000000
v -1.737212 0.218881 -1.000000
v -1.000000 0.523402 0.955602
v -1.000000 -0.523402 0.955602
v 0.000000 -0.523402 0.955602
v 0.000000 0.523402 0.955602
v -2.496680 0.523402 0.955602
v -1.928459 0.311552 0.955602
v -1.737212 0.218881 0.955602
v -1.532761 0.081801 0.955602
v -1.346233 -0.078817 0.955602
v -1.206025 -0.238521 0.955602
v -1.000000 0.523402 -0.952233
v -2.496680 0.523402 -0.952233
v -1.928459 0.311552 -0.952233
v -1.000000 -0.523402 -0.952233
v 0.000000 -0.523402 -0.952233
v 0.000000 0.523402 -0.952233
v -1.737212 0.218881 -0.952233
v -1.532761 0.081801 -0.952233
v -1.346233 -0.078817 -0.952233
v -1.206025 -0.238521 -0.952233
v 2.496680 0.523402 1.000000
v 2.496680 0.523402 -1.000000
v 1.000000 0.523402 1.000000
v 1.000000 -0.523402 1.000000
v 1.000000 0.523402 -1.000000
v 1.000000 -0.523402 -1.000000
v 1.928459 0.311552 1.000000
v 1.206025 -0.238521 1.000000
v 1.737212 0.218881 1.000000
v 1.532761 0.081801 1.000000
v 1.346233 -0.078817 1.000000
v 1.206025 -0.238521 -1.000000
v 1.928459 0.311552 -1.000000
v 1.346233 -0.078817 -1.000000
v 1.532761 0.081801 -1.000000
v 1.737212 0.218881 -1.000000
v 1.000000 0.523402 0.955602
v 1.000000 -0.523402 0.955602
v 2.496680 0.523402 0.955602
v 1.928459 0.311552 0.955602
v 1.737212 0.218881 0.955602
v 1.532761 0.081801 0.955602
v 1.346233 -0.078817 0.955602
v 1.206025 -0.238521 0.955602
v 1.000000 0.523402 -0.952233
v 2.496680 0.523402 -0.952233
v 1.928459 0.311552 -0.952233
v 1.000000 -0.523402 -0.952233
v 1.737212 0.218881 -0.952233
v 1.532761 0.081801 -0.952233
v 1.346233 -0.078817 -0.952233
v 1.206025 -0.238521 -0.952233
vn -0.0000 1.0000 -0.0000
vn -0.0000 -0.0000 -1.0000
vn -0.8103 -0.5860 -0.0000
vn -0.7818 -0.6236 -0.0000
vn -0.0000 -1.0000 -0.0000
vn -0.0000 -0.0000 1.0000
vn -0.3931 -0.9195 -0.0000
vn -0.3493 -0.9370 -0.0000
vn -0.4977 -0.8674 -0.0000
vn -0.6058 -0.7956 -0.0000
vn -0.7037 -0.7105 -0.0000
vn 0.7818 -0.6236 -0.0000
vn 0.8103 -0.5860 -0.0000
vn 0.3493 -0.9370 -0.0000
vn 0.3931 -0.9195 -0.0000
vn 0.4977 -0.8674 -0.0000
vn 0.6058 -0.7956 -0.0000
vn 0.7037 -0.7105 -0.0000
vt 0.625000 0.750000
vt 0.375000 0.750000
vt 0.375000 0.500000
vt 0.625000 0.500000
vt 0.375000 0.750000
vt 0.625000 0.750000
vt 0.375000 0.500000
vt 0.625000 0.500000
vt 0.375000 0.375000
vt 0.250000 0.500000
vt 0.625000 0.375000
vt 0.750000 0.500000
vt 0.250000 0.750000
vt 0.375000 0.875000
vt 0.750000 0.750000
vt 0.625000 0.875000
vt 0.625000 0.750000
vt 0.625000 0.750000
vt 0.628498 0.750000
vt 0.636440 0.750000
vt 0.628231 0.750000
vt 0.571791 0.500000
vt 0.625000 0.500000
vt 0.445138 0.500000
vt 0.625000 0.500000
vt 0.544415 0.500000
vt 0.625000 0.500000
vt 0.520093 0.500000
vt 0.625000 0.500000
vt 0.476225 0.500000
vt 0.625000 0.500000
vt 0.375000 0.744450
vt 0.625000 0.744450
vt 0.750000 0.744450
vt 0.250000 0.744450
vt 0.625000 0.744450
vt 0.375000 0.744450
vt 0.625000 0.744450
vt 0.628420 0.744450
vt 0.636186 0.744450
vt 0.628159 0.744450
vt 0.625000 0.744450
vt 0.375000 0.505971
vt 0.625000 0.505971
vt 0.375000 0.505971
vt 0.625000 0.505971
vt 0.625000 0.505971
vt 0.750000 0.505971
vt 0.250000 0.505971
vt 0.625084 0.505971
vt 0.625273 0.505971
vt 0.625077 0.505971
vt 0.625000 0.505971
vt 0.625000 0.750000
vt 0.375000 0.750000
vt 0.375000 0.500000
vt 0.625000 0.500000
vt 0.375000 0.750000
vt 0.625000 0.750000
vt 0.375000 0.500000
vt 0.625000 0.500000
vt 0.625000 0.750000
vt 0.625000 0.750000
vt 0.628498 0.750000
vt 0.636440 0.750000
vt 0.628231 0.750000
vt 0.571791 0.500000
vt 0.625000 0.500000
vt 0.445138 0.500000
vt 0.625000 0.500000
vt 0.544415 0.500000
vt 0.625000 0.500000
vt 0.520093 0.500000
vt 0.625000 0.500000
vt 0.476225 0.500000
vt 0.625000 0.500000
vt 0.375000 0.744450
vt 0.625000 0.744450
vt 0.625000 0.744450
vt 0.375000 0.744450
vt 0.625000 0.744450
vt 0.628420 0.744450
vt 0.636186 0.744450
vt 0.628159 0.744450
vt 0.625000 0.744450
vt 0.375000 0.505971
vt 0.625000 0.505971
vt 0.375000 0.505971
vt 0.625000 0.505971
vt 0.625000 0.505971
vt 0.625084 0.505971
vt 0.625273 0.505971
vt 0.625077 0.505971
vt 0.625000 0.505971
s 1
f 5/7/1 32/45/1 31/43/1
f 8/11/2 5/7/2 7/9/2
f 5/7/2 19/28/2 20/30/2
f 4/6/3 30/42/4 22/33/3
f 21/32/1 9/13/1 24/35/1
f 23/34/5 4/6/5 22/33/5
f 4/6/6 9/14/6 3/5/6
f 11/17/7 25/36/8 26/38/7
f 17/25/7 37/50/9 33/46/7
f 20/31/9 38/51/10 37/50/9
f 19/29/10 39/52/11 38/51/10
f 18/27/11 40/53/4 39/52/11
f 3/5/6 14/20/6 15/21/6
f 29/41/11 12/18/4 15/21/11
f 28/40/10 15/21/11 14/20/10
f 27/39/9 14/20/10 13/19/9
f 26/38/7 13/19/9 11/17/7
f 26/38/7 32/44/8 33/46/7
f 35/48/5 22/33/5 34/47/5
f 31/43/1 24/35/1 36/49/1
f 22/33/3 40/53/4 34/47/3
f 21/32/1 1/2/1 3/5/1
f 34/47/3 16/23/4 6/8/3
f 5/7/1 36/49/1 7/10/1
f 8/12/5 34/47/5 6/8/5
f 33/46/7 2/4/8 17/25/7
f 39/52/11 30/42/4 29/41/11
f 38/51/10 29/41/11 28/40/10
f 37/50/9 28/40/10 27/39/9
f 33/46/7 27/39/9 26/38/7
f 31/43/1 25/37/1 21/32/1
f 66/88/1 45/60/1 65/86/1
f 45/60/2 8/11/2 7/9/2
f 45/60/2 55/73/2 54/71/2
f 64/85/12 44/59/13 58/78/13
f 9/13/1 57/77/1 24/35/1
f 44/59/5 23/34/5 58/78/5
f 9/14/6 44/59/6 43/58/6
f 59/79/14 47/62/15 60/81/15
f 69/91/16 53/70/15 67/89/15
f 70/92/17 56/76/16 69/91/16
f 71/93/18 55/74/17 70/92/17
f 72/94/12 54/72/18 71/93/18
f 50/65/6 49/64/6 43/58/6
f 48/63/12 63/84/18 51/66/18
f 51/66/18 62/83/17 50/65/17
f 50/65/17 61/82/16 49/64/16
f 49/64/16 60/81/15 47/62/15
f 66/87/14 60/81/15 67/89/15
f 58/78/5 35/48/5 68/90/5
f 24/35/1 65/86/1 36/49/1
f 72/94/12 58/78/13 68/90/13
f 41/55/1 57/77/1 43/58/1
f 52/68/12 68/90/13 46/61/13
f 36/49/1 45/60/1 7/10/1
f 68/90/5 8/12/5 46/61/5
f 42/57/14 67/89/15 53/70/15
f 64/85/12 71/93/18 63/84/18
f 63/84/18 70/92/17 62/83/17
f 62/83/17 69/91/16 61/82/16
f 61/82/16 67/89/15 60/81/15
f 59/80/1 65/86/1 57/77/1
f 5/7/1 2/3/1 32/45/1
f 8/11/2 6/8/2 5/7/2
f 5/7/2 6/8/2 16/22/2
f 5/7/2 16/22/2 18/26/2
f 17/24/2 2/3/2 5/7/2
f 20/30/2 17/24/2 5/7/2
f 5/7/2 18/26/2 19/28/2
f 4/6/3 12/18/4 30/42/4
f 21/32/1 3/5/1 9/13/1
f 23/34/5 10/15/5 4/6/5
f 4/6/6 10/16/6 9/14/6
f 11/17/7 1/1/8 25/36/8
f 17/25/7 20/31/9 37/50/9
f 20/31/9 19/29/10 38/51/10
f 19/29/10 18/27/11 39/52/11
f 18/27/11 16/23/4 40/53/4
f 12/18/6 4/6/6 3/5/6
f 3/5/6 1/1/6 11/17/6
f 3/5/6 11/17/6 13/19/6
f 15/21/6 12/18/6 3/5/6
f 3/5/6 13/19/6 14/20/6
f 29/41/11 30/42/4 12/18/4
f 28/40/10 29/41/11 15/21/11
f 27/39/9 28/40/10 14/20/10
f 26/38/7 27/39/9 13/19/9
f 26/38/7 25/36/8 32/44/8
f 35/48/5 23/34/5 22/33/5
f 31/43/1 21/32/1 24/35/1
f 22/33/3 30/42/4 40/53/4
f 21/32/1 25/37/1 1/2/1
f 34/47/3 40/53/4 16/23/4
f 5/7/1 31/43/1 36/49/1
f 8/12/5 35/48/5 34/47/5
f 33/46/7 32/44/8 2/4/8
f 39/52/11 40/53/4 30/42/4
f 38/51/10 39/52/11 29/41/11
f 37/50/9 38/51/10 28/40/10
f 33/46/7 37/50/9 27/39/9
f 31/43/1 32/45/1 25/37/1
f 66/88/1 42/56/1 45/60/1
f 45/60/2 46/61/2 8/11/2
f 45/60/2 42/56/2 53/69/2
f 45/60/2 53/69/2 56/75/2
f 52/67/2 46/61/2 45/60/2
f 54/71/2 52/67/2 45/60/2
f 45/60/2 56/75/2 55/73/2
f 64/85/12 48/63/12 44/59/13
f 9/13/1 43/58/1 57/77/1
f 44/59/5 10/15/5 23/34/5
f 9/14/6 10/16/6 44/59/6
f 59/79/14 41/54/14 47/62/15
f 69/91/16 56/76/16 53/70/15
f 70/92/17 55/74/17 56/76/16
f 71/93/18 54/72/18 55/74/17
f 72/94/12 52/68/12 54/72/18
f 43/58/6 44/59/6 48/63/6
f 43/58/6 48/63/6 51/66/6
f 47/62/6 41/54/6 43/58/6
f 49/64/6 47/62/6 43/58/6
f 43/58/6 51/66/6 50/65/6
f 48/63/12 64/85/12 63/84/18
f 51/66/18 63/84/18 62/83/17
f 50/65/17 62/83/17 61/82/16
f 49/64/16 61/82/16 60/81/15
f 66/87/14 59/79/14 60/81/15
f 58/78/5 23/34/5 35/48/5
f 24/35/1 57/77/1 65/86/1
f 72/94/12 64/85/12 58/78/13
f 41/55/1 59/80/1 57/77/1
f 52/68/12 72/94/12 68/90/13
f 36/49/1 65/86/1 45/60/1
f 68/90/5 35/48/5 8/12/5
f 42/57/14 66/87/14 67/89/15
f 64/85/12 72/94/12 71/93/18
f 63/84/18 71/93/18 70/92/17
f 62/83/17 70/92/17 69/91/16
f 61/82/16 69/91/16 67/89/15
f 59/80/1 66/88/1 65/86/1
