# Blender 3.5.0
# www.blender.org
mtllib ramp2.mtl
o Ramp2
v 1.000000 1.000000 -0.015949
v 1.000000 -1.000000 -0.015949
v 1.000000 1.000000 -1.055073
v 1.000000 -1.000000 -1.055073
v -1.000000 1.000000 -0.015949
v -1.000000 -1.000000 -0.015949
v -1.000000 1.000000 -1.055073
v -1.000000 -1.000000 -1.055073
v 1.000000 1.000000 1.719060
v -1.000000 1.000000 1.719060
v 1.000000 0.711218 1.142530
v 1.000000 -0.444558 0.158449
v 1.000000 0.510051 0.841648
v 1.000000 0.219763 0.548975
v 1.000000 -0.115451 0.309068
v -1.000000 -0.444558 0.158449
v -1.000000 0.711218 1.142530
v -1.000000 -0.115451 0.309068
v -1.000000 0.219763 0.548975
v -1.000000 0.510051 0.841648
vn 1.0000 -0.0000 -0.0000
vn -0.0000 -0.0000 -1.0000
vn -1.0000 -0.0000 -0.0000
vn -0.0000 1.0000 -0.0000
vn -0.0000 -1.0000 -0.0000
vn -0.0000 -0.2996 0.9541
vn -0.0000 -0.3586 0.9335
vn -0.0000 -0.5014 0.8652
vn -0.0000 -0.6483 0.7614
vn -0.0000 -0.7742 0.6329
vn -0.0000 -0.8644 0.5028
vn -0.0000 -0.8941 0.4479
vt 0.125000 0.750000
vt 0.375000 0.000000
vt 0.875000 0.750000
vt 0.625000 0.000000
vt 0.125000 0.500000
vt 0.375000 0.250000
vt 0.625000 0.250000
vt 0.875000 0.500000
vt 0.375000 0.750000
vt 0.625000 0.750000
vt 0.375000 0.500000
vt 0.625000 0.500000
vt 0.125000 0.750000
vt 0.375000 0.000000
vt 0.375000 1.000000
vt 0.375000 0.750000
vt 0.484719 0.000000
vt 0.484719 1.000000
vt 0.625000 0.000000
vt 0.875000 0.750000
vt 0.565882 0.000000
vt 0.545825 1.000000
vt 0.684784 0.000000
vt 0.875000 0.750000
vt 0.625000 1.000000
vt 0.646944 0.000000
vt 0.875000 0.750000
vt 0.625000 0.750000
vt 0.484719 0.750000
vt 0.646944 0.750000
vt 0.625000 0.750000
vt 0.684784 0.750000
vt 0.625000 0.750000
vt 0.565882 0.750000
vt 0.545825 0.750000
s 1
f 2/4/1 3/6/1 1/2/1
f 4/7/2 7/11/2 3/6/2
f 8/12/3 5/9/3 7/11/3
f 5/9/3 19/32/3 20/34/3
f 7/11/4 1/1/4 3/5/4
f 4/8/5 6/10/5 8/12/5
f 2/3/6 16/28/7 6/10/6
f 5/9/4 9/13/4 1/1/4
f 1/2/1 14/23/1 15/26/1
f 12/20/7 18/31/8 16/28/7
f 15/27/8 19/33/9 18/31/8
f 14/25/9 20/35/10 19/33/9
f 13/22/10 17/29/11 20/35/10
f 17/29/11 9/15/12 10/16/12
f 2/4/1 4/7/1 3/6/1
f 4/7/2 8/12/2 7/11/2
f 8/12/3 6/10/3 5/9/3
f 5/9/3 6/10/3 16/28/3
f 5/9/3 16/28/3 18/30/3
f 17/29/3 10/16/3 5/9/3
f 20/34/3 17/29/3 5/9/3
f 5/9/3 18/30/3 19/32/3
f 7/11/4 5/9/4 1/1/4
f 4/8/5 2/3/5 6/10/5
f 2/3/6 12/20/7 16/28/7
f 5/9/4 10/16/4 9/13/4
f 12/19/1 2/4/1 1/2/1
f 1/2/1 9/14/1 11/17/1
f 1/2/1 11/17/1 13/21/1
f 15/26/1 12/19/1 1/2/1
f 1/2/1 13/21/1 14/23/1
f 12/20/7 15/27/8 18/31/8
f 15/27/8 14/24/9 19/33/9
f 14/25/9 13/22/10 20/35/10
f 13/22/10 11/18/11 17/29/11
f 17/29/11 11/18/11 9/15/12
